<svg aria-hidden="true" style="position: absolute; width: 0; height: 0; overflow: hidden;" version="1.1" xmlns="http://www.w3.org/2000/svg" xmlns:xlink="http://www.w3.org/1999/xlink">
<defs>
<symbol id="icon-tv" viewBox="0 0 32 32">
<path d="M0 8c0 0 0-4 4-4h24c0 0 4 0 4 4v12c0 0 0 4-4 4h-8c0 1.333 0.167 2.333 0.5 3h1.5c0.265 0 0.52 0.105 0.707 0.293s0.293 0.442 0.293 0.707c0 0.265-0.105 0.52-0.293 0.707s-0.442 0.293-0.707 0.293h-12c-0.265 0-0.52-0.105-0.707-0.293s-0.293-0.442-0.293-0.707c0-0.265 0.105-0.52 0.293-0.707s0.442-0.293 0.707-0.293h1.5c0.333-0.667 0.5-1.667 0.5-3h-8c0 0-4 0-4-4v-12zM2.796 6.29c-0.22 0.153-0.395 0.361-0.508 0.604-0.168 0.353-0.266 0.735-0.288 1.126v11.98c0 0.65 0.156 1.004 0.29 1.204 0.14 0.208 0.341 0.377 0.604 0.508 0.338 0.162 0.703 0.259 1.076 0.286l0.050 0.002h23.98c0.65 0 1.004-0.156 1.204-0.29 0.22-0.153 0.395-0.361 0.508-0.604 0.162-0.338 0.259-0.703 0.286-1.076l0.002-0.050v-11.98c0-0.65-0.156-1.004-0.29-1.204-0.153-0.22-0.361-0.395-0.604-0.508-0.353-0.168-0.736-0.266-1.126-0.288h-23.98c-0.65 0-1.004 0.156-1.204 0.29z"></path>
</symbol>
<symbol id="icon-alcove" viewBox="0 0 32 32">
<path d="M8 4v4h-4v-4h4zM10 28v-4c0-0.53-0.211-1.039-0.586-1.414s-0.884-0.586-1.414-0.586h-4c-0.53 0-1.039 0.211-1.414 0.586s-0.586 0.884-0.586 1.414v4c0 0.53 0.211 1.039 0.586 1.414s0.884 0.586 1.414 0.586h4c0.53 0 1.039-0.211 1.414-0.586s0.586-0.884 0.586-1.414zM10 18v-4c0-0.53-0.211-1.039-0.586-1.414s-0.884-0.586-1.414-0.586h-4c-0.53 0-1.039 0.211-1.414 0.586s-0.586 0.884-0.586 1.414v4c0 0.53 0.211 1.039 0.586 1.414s0.884 0.586 1.414 0.586h4c0.53 0 1.039-0.211 1.414-0.586s0.586-0.884 0.586-1.414zM10 8v-4c0-0.53-0.211-1.039-0.586-1.414s-0.884-0.586-1.414-0.586h-4c-0.53 0-1.039 0.211-1.414 0.586s-0.586 0.884-0.586 1.414v4c0 0.53 0.211 1.039 0.586 1.414s0.884 0.586 1.414 0.586h4c0.53 0 1.039-0.211 1.414-0.586s0.586-0.884 0.586-1.414zM20 28v-4c0-0.53-0.211-1.039-0.586-1.414s-0.884-0.586-1.414-0.586h-4c-0.53 0-1.039 0.211-1.414 0.586s-0.586 0.884-0.586 1.414v4c0 0.53 0.211 1.039 0.586 1.414s0.884 0.586 1.414 0.586h4c0.53 0 1.039-0.211 1.414-0.586s0.586-0.884 0.586-1.414zM20 18v-4c0-0.53-0.211-1.039-0.586-1.414s-0.884-0.586-1.414-0.586h-4c-0.53 0-1.039 0.211-1.414 0.586s-0.586 0.884-0.586 1.414v4c0 0.53 0.211 1.039 0.586 1.414s0.884 0.586 1.414 0.586h4c0.53 0 1.039-0.211 1.414-0.586s0.586-0.884 0.586-1.414zM20 8v-4c0-0.53-0.211-1.039-0.586-1.414s-0.884-0.586-1.414-0.586h-4c-0.53 0-1.039 0.211-1.414 0.586s-0.586 0.884-0.586 1.414v4c0 0.53 0.211 1.039 0.586 1.414s0.884 0.586 1.414 0.586h4c0.53 0 1.039-0.211 1.414-0.586s0.586-0.884 0.586-1.414zM18 4v4h-4v-4h4zM28 4v4h-4v-4h4zM8 14v4h-4v-4h4zM18 14v4h-4v-4h4zM28 14h-4v4h4v-4zM8 24v4h-4v-4h4zM18 24v4h-4v-4h4zM28 24v4h-4v-4h4zM24 2c-0.53 0-1.039 0.211-1.414 0.586s-0.586 0.884-0.586 1.414v4c0 0.53 0.211 1.039 0.586 1.414s0.884 0.586 1.414 0.586h4c0.53 0 1.039-0.211 1.414-0.586s0.586-0.884 0.586-1.414v-4c0-0.53-0.211-1.039-0.586-1.414s-0.884-0.586-1.414-0.586h-4zM22 14c0-0.53 0.211-1.039 0.586-1.414s0.884-0.586 1.414-0.586h4c0.53 0 1.039 0.211 1.414 0.586s0.586 0.884 0.586 1.414v4c0 0.53-0.211 1.039-0.586 1.414s-0.884 0.586-1.414 0.586h-4c-0.53 0-1.039-0.211-1.414-0.586s-0.586-0.884-0.586-1.414v-4zM24 22c-0.53 0-1.039 0.211-1.414 0.586s-0.586 0.884-0.586 1.414v4c0 0.53 0.211 1.039 0.586 1.414s0.884 0.586 1.414 0.586h4c0.53 0 1.039-0.211 1.414-0.586s0.586-0.884 0.586-1.414v-4c0-0.53-0.211-1.039-0.586-1.414s-0.884-0.586-1.414-0.586h-4z"></path>
</symbol>
<symbol id="icon-integrated" viewBox="0 0 32 32">
<path d="M2 5c0-0.796 0.316-1.559 0.879-2.121s1.326-0.879 2.121-0.879h6c0.796 0 1.559 0.316 2.121 0.879s0.879 1.326 0.879 2.121v6c0 0.796-0.316 1.559-0.879 2.121s-1.326 0.879-2.121 0.879h-6c-0.796 0-1.559-0.316-2.121-0.879s-0.879-1.326-0.879-2.121v-6zM5 4c-0.265 0-0.52 0.105-0.707 0.293s-0.293 0.442-0.293 0.707v6c0 0.265 0.105 0.52 0.293 0.707s0.442 0.293 0.707 0.293h6c0.265 0 0.52-0.105 0.707-0.293s0.293-0.442 0.293-0.707v-6c0-0.265-0.105-0.52-0.293-0.707s-0.442-0.293-0.707-0.293h-6zM18 5c0-0.796 0.316-1.559 0.879-2.121s1.326-0.879 2.121-0.879h6c0.796 0 1.559 0.316 2.121 0.879s0.879 1.326 0.879 2.121v6c0 0.796-0.316 1.559-0.879 2.121s-1.326 0.879-2.121 0.879h-6c-0.796 0-1.559-0.316-2.121-0.879s-0.879-1.326-0.879-2.121v-6zM21 4c-0.265 0-0.52 0.105-0.707 0.293s-0.293 0.442-0.293 0.707v6c0 0.265 0.105 0.52 0.293 0.707s0.442 0.293 0.707 0.293h6c0.265 0 0.52-0.105 0.707-0.293s0.293-0.442 0.293-0.707v-6c0-0.265-0.105-0.52-0.293-0.707s-0.442-0.293-0.707-0.293h-6zM2 21c0-0.796 0.316-1.559 0.879-2.121s1.326-0.879 2.121-0.879h6c0.796 0 1.559 0.316 2.121 0.879s0.879 1.326 0.879 2.121v6c0 0.796-0.316 1.559-0.879 2.121s-1.326 0.879-2.121 0.879h-6c-0.796 0-1.559-0.316-2.121-0.879s-0.879-1.326-0.879-2.121v-6zM5 20c-0.265 0-0.52 0.105-0.707 0.293s-0.293 0.442-0.293 0.707v6c0 0.265 0.105 0.52 0.293 0.707s0.442 0.293 0.707 0.293h6c0.265 0 0.52-0.105 0.707-0.293s0.293-0.442 0.293-0.707v-6c0-0.265-0.105-0.52-0.293-0.707s-0.442-0.293-0.707-0.293h-6zM18 21c0-0.796 0.316-1.559 0.879-2.121s1.326-0.879 2.121-0.879h6c0.796 0 1.559 0.316 2.121 0.879s0.879 1.326 0.879 2.121v6c0 0.796-0.316 1.559-0.879 2.121s-1.326 0.879-2.121 0.879h-6c-0.796 0-1.559-0.316-2.121-0.879s-0.879-1.326-0.879-2.121v-6zM21 20c-0.265 0-0.52 0.105-0.707 0.293s-0.293 0.442-0.293 0.707v6c0 0.265 0.105 0.52 0.293 0.707s0.442 0.293 0.707 0.293h6c0.265 0 0.52-0.105 0.707-0.293s0.293-0.442 0.293-0.707v-6c0-0.265-0.105-0.52-0.293-0.707s-0.442-0.293-0.707-0.293h-6z"></path>
</symbol>
<symbol id="icon-van" viewBox="0 0 32 32">
<path d="M12 2h-10v28h10v-28zM30 2h-10v10h10v-10zM30 20v10h-10v-10h10zM0 2c0-0.53 0.211-1.039 0.586-1.414s0.884-0.586 1.414-0.586h10c0.53 0 1.039 0.211 1.414 0.586s0.586 0.884 0.586 1.414v28c0 0.53-0.211 1.039-0.586 1.414s-0.884 0.586-1.414 0.586h-10c-0.53 0-1.039-0.211-1.414-0.586s-0.586-0.884-0.586-1.414v-28zM18 2c0-0.53 0.211-1.039 0.586-1.414s0.884-0.586 1.414-0.586h10c0.53 0 1.039 0.211 1.414 0.586s0.586 0.884 0.586 1.414v10c0 0.53-0.211 1.039-0.586 1.414s-0.884 0.586-1.414 0.586h-10c-0.53 0-1.039-0.211-1.414-0.586s-0.586-0.884-0.586-1.414v-10zM20 18c-0.53 0-1.039 0.211-1.414 0.586s-0.586 0.884-0.586 1.414v10c0 0.53 0.211 1.039 0.586 1.414s0.884 0.586 1.414 0.586h10c0.53 0 1.039-0.211 1.414-0.586s0.586-0.884 0.586-1.414v-10c0-0.53-0.211-1.039-0.586-1.414s-0.884-0.586-1.414-0.586h-10z"></path>
</symbol>
</defs>
</svg>
